<svg width="295" height="185" viewBox="0 0 295 185" fill="none" xmlns="http://www.w3.org/2000/svg">
<path d="M16.3264 20.8977C16.3264 21.5577 16.3264 35.4277 16.4914 56.4227C16.5894 68.8953 17.9864 76.8777 18.4914 85.0327C18.816 90.2745 19.9864 94.8777 20.4914 101.538C20.9008 106.937 21.6564 111.208 22.3214 115.368C22.8326 118.566 37.5164 119.898 59.6764 119.733C67.6478 119.673 68.9664 119.238 89.4464 119.068C109.926 118.898 149.526 118.898 170.586 118.733C191.646 118.568 192.966 118.238 202.391 118.068C229.303 117.582 248.316 115.918 250.311 111.763C253.953 104.178 253.656 100.578 254.156 88.0177C254.604 76.7854 254.326 55.6577 254.491 44.2827C254.71 29.2262 255.986 23.9177 255.666 7.95774C255.604 4.828 253.686 4.89774 252.181 5.06274C246.257 5.71227 241.686 6.89774 222.491 7.72774C206.65 8.41272 175.946 7.89774 159.311 8.06274C141.021 8.24417 133.056 8.89774 122.896 9.06274C108.384 9.29842 89.6864 10.5577 83.3514 11.0627C69.7464 11.8977 51.0064 12.2277 43.8914 12.7277C38.0964 12.8977 27.8664 12.8977 17.3264 12.8977M21.3263 119.898C20.9963 121.888 19.0063 126.538 17.3313 131.878C15.6572 137.215 13.6663 142.538 12.4963 146.883C11.3617 151.096 10.6663 156.538 8.66635 161.878C6.8935 166.611 6.66635 170.878 5.33135 175.713C5.00616 176.89 4.66635 177.878 5.65135 178.388C8.61224 179.921 12.6463 178.568 21.0814 178.068C55.26 176.042 60.6264 176.898 66.9664 176.068C75.9139 174.896 81.3063 174.238 94.6063 173.733C98.9912 173.566 102.306 172.568 121.476 172.068C138.661 171.62 171.006 171.898 188.326 171.733C206.972 171.555 210.306 170.568 221.061 170.068C245.321 168.94 262.316 169.568 264.311 168.903C271.307 166.571 282.306 167.238 286.311 166.068C287.29 165.782 288.306 165.898 288.651 165.403C290.728 162.424 284.346 157.258 280.506 153.578C276.626 149.859 273.346 145.258 270.336 140.913C267.695 137.1 266.666 132.918 264.336 128.913C262.326 124.908 261.666 121.908 260.336 119.913C259.666 118.908 259.006 117.918 258.326 115.898M44.3264 137.898H45.3264M66.3264 135.898H68.3264M92.3264 133.898H94.3264M116.326 133.898H119.326M143.326 133.898H146.326M169.326 132.898H173.326M194.326 132.898H196.326M219.326 131.898H220.326M243.326 129.898H244.326M247.326 143.898L248.326 144.898M222.326 147.898H224.326M197.326 151.898H202.326M173.326 153.898H178.326M154.326 155.898C153.666 155.898 145.406 155.898 132.911 156.063C128.336 156.228 127.346 156.558 125.186 156.728C123.026 156.898 119.726 156.898 116.326 156.898M100.326 158.898C99.9964 158.898 99.6664 158.898 99.0014 159.063C98.3364 159.228 97.3464 159.558 96.3264 159.898M66.3264 159.898H77.3264M44.3264 160.898H49.3264" stroke="white" stroke-width="10" stroke-linecap="round"/>
</svg>
