<svg width="185" height="210" viewBox="0 0 185 210" fill="none" xmlns="http://www.w3.org/2000/svg">
<path d="M10 122C21.9 122 46.62 120.68 52.98 119.17C58.1983 117.931 63.64 118 77.725 117.17C87.794 116.577 106.62 117 116.805 117.165C130.368 117.385 136.3 119 141.315 119.83C146.936 120.76 151.64 121 156.815 121.995C158.98 122.66 162.64 123 167.135 123.165C168.99 123.33 169.98 123.66 171 124M29 66C30.99 66.66 35.64 69.98 40.15 73.155C45.0364 76.595 49.64 79.32 53.985 80.995C57.8378 82.4803 62.64 83.32 66.985 84.165C71.0793 84.9612 74.98 86.66 82.305 87.165C93.5941 87.9433 110.98 86.68 114.985 84.84C119.275 82.869 122.98 80.34 126.985 78.84C131.406 77.1841 134.98 74.34 138.985 72.84C142.99 70.34 145.99 68.67 147.985 68.005C148.99 67.67 149.98 67.34 152 66M31 178C33.98 175.68 41.3 170.36 46.48 165.85C52.6592 160.47 57.98 159.34 62.815 156.18C66.8928 153.515 70.98 151.02 74.985 148.175C78.5764 145.624 83.64 143.68 92.94 142.17C117.667 138.155 121.98 143.66 125.985 145.16C130.406 146.816 133.98 150.98 137.985 153.16C142.132 155.417 145.98 158.98 149.82 162.155C150.66 162.99 151.32 163.98 152.155 164.82C152.99 165.66 153.98 166.32 157 169M90 39C88.01 39.33 84.02 42.64 79.52 48.47C71.5321 58.8187 70.68 64.64 67.18 69.98C64.1083 74.6666 64 78.98 61.345 87.3C59.4454 93.2529 58.34 98.64 57.005 103.98C55.6871 109.252 55.34 113.98 53.34 119.645C51.8764 123.791 51.34 129.3 51.33 147.43C51.3257 155.25 55.32 159.64 60.3 166.13C72.88 182.524 77.98 184.32 80.99 187.985C84.32 192.32 88.32 196.98 91.82 200.985C92.66 201.99 93.32 202.98 94 204M91 39C92.32 41.98 98.96 51.28 103.82 57.98C107.11 62.5159 108.98 67.64 118.465 86.26C122.873 94.9141 124.66 102.64 125.995 108.145C127.56 114.599 128 131.2 127.17 140.985C126.797 145.383 125 149.98 123.175 157.47C121.669 163.65 119.68 168.98 117.675 173.15C115.128 178.447 111.02 182.64 108.01 186.985C105.34 190.99 103.34 194.98 98.52 200.645C97.34 201.99 96.68 202.98 95 204M16 24C16 24.66 16.99 25.66 19.48 27.65C20.98 28.98 22.96 30.96 24.475 32.145C25.99 33.33 26.98 33.66 28 34M89 5V19M180 37C179.34 37 178.01 37.66 176.18 39.155C174.68 40.98 173.01 42.99 171.015 44.82C170.01 45.66 169.02 46.32 167 48M92 34C140.049 34 179 72.2797 179 119.5C179 166.72 140.049 205 92 205C43.9512 205 5 166.72 5 119.5C5 72.2797 43.9512 34 92 34ZM92.5 41C49.1456 41 14 76.1456 14 119.5C14 162.854 49.1456 198 92.5 198C135.854 198 171 162.854 171 119.5C171 76.1456 135.854 41 92.5 41Z" stroke="white" stroke-width="10" stroke-linecap="round"/>
</svg>
